<!--?xml version="1.0" encoding="utf-8"?-->
<!-- Generator: Adobe Illustrator 18.1.1, SVG Export Plug-In . SVG Version: 6.00 Build 0)  -->

<svg version="1.1" id="_x32_" xmlns="http://www.w3.org/2000/svg" xmlns:xlink="http://www.w3.org/1999/xlink" x="0px" y="0px" viewBox="0 0 512 512" style="width: 256px; height: 256px; opacity: 1;" xml:space="preserve">
<style type="text/css">
	.st0{fill:#4B4B4B;}
</style>
<g>
	<path class="st0" d="M273.192,0h-34.393C151.19,0,80.181,71.025,80.181,158.634v279.821c0,40.624,32.92,73.545,73.536,73.545
		H358.29c40.608,0,73.529-32.921,73.529-73.545V158.634C431.819,71.025,360.81,0,273.192,0z M278.146,75.018
		c11.297-9.866,28.478-8.691,38.353,2.622v-0.017c9.858,11.322,8.684,28.511-2.614,38.368c-11.323,9.875-28.494,8.701-38.378-2.614
		v-0.008C265.65,102.064,266.824,84.885,278.146,75.018z M211.131,68.803c14.771-2.801,28.996,6.904,31.78,21.649
		c2.8,14.762-6.913,28.98-21.658,31.788c-14.754,2.776-28.979-6.913-31.78-21.674C186.689,85.821,196.386,71.587,211.131,68.803z
		 M134.938,164.261c-11.322-9.858-12.498-27.037-2.622-38.352c9.884-11.322,27.055-12.498,38.361-2.63
		c11.323,9.875,12.497,27.046,2.631,38.368C163.432,172.945,146.26,174.136,134.938,164.261z M344.235,258.401
		c-15.596,36.589-64.317,21.521-90.189,21.521c-25.897,0-74.601,15.068-90.197-21.521c-16.149-37.901,39.629-91.168,90.197-91.168
		C304.589,167.232,360.384,220.5,344.235,258.401z M386.094,148.836c-2.784,14.745-17.001,24.45-31.763,21.649
		c-14.753-2.801-24.45-17.018-21.649-31.763c2.784-14.761,17.01-24.449,31.763-21.674
		C379.207,119.857,388.903,134.074,386.094,148.836z" style="fill: rgb(75, 75, 75);"></path>
</g>
</svg>
